<svg width="420" height="141" viewBox="0 0 420 141" xmlns="http://www.w3.org/2000/svg"><title>Bitnami-Logo-White</title><g fill="#FFFFFE" fill-rule="evenodd"><path d="M198.527 50.879h9.977v-9.976h-9.977zM198.527 105.75h9.977V56.868h-9.977zM181 80.484c0 5.031-.679 8.995-2.021 11.78-1.325 2.764-3.889 4.108-7.838 4.108-2.717 0-4.828-.687-6.273-2.04-1.461-1.388-2.447-3.224-2.927-5.458-.5-2.31-.754-5.133-.754-8.39 0-3.252.253-6.064.754-8.357.48-2.234 1.465-4.053 2.924-5.407 1.451-1.345 3.562-2.027 6.276-2.027 2.72 0 4.748.652 6.197 1.995 1.446 1.342 2.425 3.162 2.91 5.406.5 2.315.753 5.139.753 8.39zm8.505-15.12c-.832-2.235-2.044-4.15-3.598-5.689-1.345-1.365-3.114-2.463-5.257-3.263-2.114-.79-4.436-1.19-6.906-1.19-2.778 0-5.25.429-7.348 1.273-1.887.761-3.637 2.009-5.209 3.715V35.914l-10.546 5.512v63.76h10.352v-4.662c1.692 1.864 3.433 3.155 5.303 3.934 2.06.856 4.533 1.29 7.352 1.29 2.503 0 4.852-.4 6.984-1.19 2.188-.811 3.913-1.868 5.271-3.227 1.558-1.528 2.77-3.444 3.6-5.693a28.367 28.367 0 0 0 1.668-6.983c.247-2.406.373-5.16.373-8.187 0-3.027-.126-5.781-.373-8.188a27.82 27.82 0 0 0-1.666-6.917zM226.97 42.9l-10.485 5.454v43.65c0 2.47.518 4.764 1.541 6.814 1.02 2.073 2.587 3.766 4.654 5.03 2.067 1.262 4.607 1.903 7.547 1.903h6.21v-8.913h-4.375c-3.426 0-5.093-1.732-5.093-5.295V65.816h9.468v-8.073h-9.468V42.9M266.166 55.867c-2.475 0-4.882.482-7.157 1.43a16.511 16.511 0 0 0-5.4 3.606v-4.43H243.42v49.275h10.381V75.81c0-3.453.915-6.093 2.717-7.844 1.826-1.755 4.177-2.644 6.989-2.644 1.833 0 3.42.364 4.853 1.116 1.401.72 2.522 1.879 3.335 3.445.829 1.568 1.25 3.563 1.25 5.927v29.938h10.38V74.323c0-6.019-1.683-10.702-4.998-13.919-3.061-3.01-7.152-4.537-12.16-4.537M410.024 105.75H420V56.868h-9.976zM410.024 50.879H420v-9.976h-9.976zM386.254 55.867c-6.218 0-11.354 2.337-15.27 6.946-3.152-4.61-7.822-6.946-13.888-6.946-2.57 0-5.027.493-7.301 1.464a16.81 16.81 0 0 0-5.333 3.57v-4.428h-10.258v49.275h10.45V75.81c0-3.453.92-6.092 2.734-7.844 1.838-1.755 4.205-2.644 7.036-2.644 1.846 0 3.442.364 4.881 1.116 1.408.719 2.537 1.876 3.356 3.446.835 1.563 1.26 3.557 1.26 5.926v29.938h10.449V75.346c0-3.169.95-5.656 2.827-7.391 1.918-1.772 4.183-2.633 6.926-2.633 2.794 0 5.096.867 6.84 2.578 1.743 1.71 2.626 4.37 2.626 7.91v29.938h10.449V74.323c0-5.887-1.77-10.57-5.258-13.92-3.127-3.01-7.341-4.536-12.526-4.536M317.831 85.108v3.09c0 6.55-5.548 9.481-11.046 9.481-5.845 0-8.685-1.955-8.685-5.975 0-2.12.812-4.033 2.119-4.995 1.438-1.063 3.582-1.601 6.37-1.601h11.242zm-9.9-28.608c-4.135 0-7.576.524-10.228 1.556-2.673 1.04-5.164 2.906-7.405 5.546l-.196.23 6.864 6.408.217-.272c1.333-1.68 2.745-2.862 4.193-3.514 1.452-.652 3.535-.984 6.19-.984 3.592 0 6.236.704 7.86 2.089 1.596 1.388 2.405 3.59 2.405 6.543v2.456h-12.494c-3.602 0-6.718.594-9.26 1.769-2.55 1.175-4.504 2.856-5.807 4.994-1.225 1.992-1.956 5.002-1.956 8.05 0 4.335 1.316 7.89 3.917 10.57 1.508 1.478 3.37 2.6 5.535 3.331 2.17.736 4.76 1.11 7.697 1.11 2.982 0 5.486-.392 7.442-1.162 1.767-.697 3.487-1.814 5.12-3.325v3.932h10.194V73.358c0-11.186-6.826-16.858-20.289-16.858zM78.157 79.244V61.63l-15.31-8.807-15.31 8.807v17.615l15.31 8.81 15.31-8.81"/><path d="M123.932 35.578c-1.186-2.147-2.957-3.926-5.286-5.265l-48.73-28.03c-4.517-2.598-9.817-2.486-14.122-.01l-8.28 4.763v30.335l15.333-8.82 36.477 20.982V91.5l-36.477 20.982L26.367 91.5v-.063-72.498L6.932 30.12C2.412 32.72 0 35.293 0 40.39v58.024c0 2.65.71 5.037 1.856 7.055 1.285 2.26 3.118 4.057 5.148 5.224l48.528 27.915c4.748 2.732 9.857 2.744 14.578.029l48.646-27.983c4.54-2.611 6.936-6.757 6.936-12.027V42.864c0-2.744-.602-5.19-1.76-7.286"/></g></svg>